# xmcd
#
# Track frame offsets:
#	150
#	16372
#	32805
#	50892
#	66845
#	79755
#	94732
#	109095
#	124045
#	139092
#	157475
#	175602
#
# Disc length: 2576 seconds
#
# Revision: 2
# Processed by: cddbd v1.5.1PL0 Copyright (c) Steve Scherf et al.
# Submitted via: audiograbber 1.83.01
#
DISCID=a50a0e0c
DTITLE=Vince Gill - Vince Gill
DYEAR=2003
DGENRE=Country
TTITLE0=Cinderella
TTITLE1=Oklahoma Borderline
TTITLE2=I Never Knew Lonely
TTITLE3=If It Weren't For Him
TTITLE4=Everybody's Sweetheart
TTITLE5=Let's Do Something
TTITLE6=Turn Me Loose
TTITLE7=Oh Carolina
TTITLE8=Victim Of Life's Circumstances
TTITLE9=The Radio
TTITLE10=True Love
TTITLE11=Lucy Dee
EXTD=
EXTT0=
EXTT1=
EXTT2=
EXTT3=
EXTT4=
EXTT5=
EXTT6=
EXTT7=
EXTT8=
EXTT9=
EXTT10=
EXTT11=
PLAYORDER=
